<mxfile host="app.diagrams.net" agent="Mozilla/5.0 (Windows NT 10.0; Win64; x64) AppleWebKit/537.36 (KHTML, like Gecko) Chrome/136.0.0.0 Safari/537.36" version="27.1.1">
  <diagram name="Page-1" id="xCGT61oDNWuSWlAycuBs">
    <mxGraphModel dx="2430" dy="853" grid="0" gridSize="10" guides="1" tooltips="1" connect="1" arrows="1" fold="1" page="1" pageScale="1" pageWidth="850" pageHeight="1100" math="0" shadow="0">
      <root>
        <mxCell id="0" />
        <mxCell id="1" parent="0" />
        <mxCell id="s8xkUsam219M5rEEbGRo-38" value="" style="rounded=0;whiteSpace=wrap;html=1;rotation=90;" vertex="1" parent="1">
          <mxGeometry x="893.88" y="130" width="117.25" height="92.75" as="geometry" />
        </mxCell>
        <mxCell id="s8xkUsam219M5rEEbGRo-30" value="" style="whiteSpace=wrap;html=1;aspect=fixed;fillColor=#00CCCC;" vertex="1" parent="1">
          <mxGeometry x="-120" y="40" width="450" height="450" as="geometry" />
        </mxCell>
        <mxCell id="s8xkUsam219M5rEEbGRo-28" value="" style="whiteSpace=wrap;html=1;aspect=fixed;fillColor=#66B2FF;" vertex="1" parent="1">
          <mxGeometry x="-80" y="80" width="390" height="390" as="geometry" />
        </mxCell>
        <mxCell id="s8xkUsam219M5rEEbGRo-26" value="" style="whiteSpace=wrap;html=1;aspect=fixed;fillColor=#FF6666;" vertex="1" parent="1">
          <mxGeometry x="-30" y="120" width="310" height="310" as="geometry" />
        </mxCell>
        <mxCell id="s8xkUsam219M5rEEbGRo-25" value="" style="rounded=0;whiteSpace=wrap;html=1;" vertex="1" parent="1">
          <mxGeometry x="120" y="320" width="120" height="100" as="geometry" />
        </mxCell>
        <mxCell id="s8xkUsam219M5rEEbGRo-24" value="" style="rounded=0;whiteSpace=wrap;html=1;" vertex="1" parent="1">
          <mxGeometry x="120" y="140" width="120" height="100" as="geometry" />
        </mxCell>
        <mxCell id="CeybT1O4ImEEBQ-VAA7H-1" value="" style="shape=image;verticalLabelPosition=bottom;labelBackgroundColor=default;verticalAlign=top;aspect=fixed;imageAspect=0;image=https://symbols.getvecta.com/stencil_20/8_customer-gateway.5f8e151d08.png;" parent="1" vertex="1">
          <mxGeometry x="640" y="240" width="60" height="60" as="geometry" />
        </mxCell>
        <mxCell id="CeybT1O4ImEEBQ-VAA7H-2" value="Custom Gateway" style="text;html=1;align=center;verticalAlign=middle;whiteSpace=wrap;rounded=0;" parent="1" vertex="1">
          <mxGeometry x="620" y="300" width="110" height="30" as="geometry" />
        </mxCell>
        <mxCell id="s8xkUsam219M5rEEbGRo-2" value="" style="outlineConnect=0;dashed=0;verticalLabelPosition=bottom;verticalAlign=top;align=center;html=1;shape=mxgraph.aws3.internet_gateway;fillColor=#F58534;gradientColor=none;" vertex="1" parent="1">
          <mxGeometry x="520" y="242.5" width="60" height="55" as="geometry" />
        </mxCell>
        <mxCell id="s8xkUsam219M5rEEbGRo-3" value="Internet" style="text;html=1;align=center;verticalAlign=middle;whiteSpace=wrap;rounded=0;" vertex="1" parent="1">
          <mxGeometry x="510" y="300" width="70" height="30" as="geometry" />
        </mxCell>
        <mxCell id="s8xkUsam219M5rEEbGRo-4" value="" style="sketch=0;points=[[0,0,0],[0.25,0,0],[0.5,0,0],[0.75,0,0],[1,0,0],[0,1,0],[0.25,1,0],[0.5,1,0],[0.75,1,0],[1,1,0],[0,0.25,0],[0,0.5,0],[0,0.75,0],[1,0.25,0],[1,0.5,0],[1,0.75,0]];outlineConnect=0;fontColor=#232F3E;fillColor=#8C4FFF;strokeColor=#ffffff;dashed=0;verticalLabelPosition=bottom;verticalAlign=top;align=center;html=1;fontSize=12;fontStyle=0;aspect=fixed;shape=mxgraph.aws4.resourceIcon;resIcon=mxgraph.aws4.site_to_site_vpn;" vertex="1" parent="1">
          <mxGeometry x="418.75" y="245" width="52.5" height="52.5" as="geometry" />
        </mxCell>
        <mxCell id="s8xkUsam219M5rEEbGRo-5" value="AWS Site 2&amp;nbsp;" style="text;html=1;align=center;verticalAlign=middle;whiteSpace=wrap;rounded=0;" vertex="1" parent="1">
          <mxGeometry x="410" y="300" width="70" height="30" as="geometry" />
        </mxCell>
        <mxCell id="s8xkUsam219M5rEEbGRo-7" value="" style="outlineConnect=0;dashed=0;verticalLabelPosition=bottom;verticalAlign=top;align=center;html=1;shape=mxgraph.aws3.vpn_gateway;fillColor=#F58534;gradientColor=none;" vertex="1" parent="1">
          <mxGeometry x="275" y="232.5" width="65" height="65" as="geometry" />
        </mxCell>
        <mxCell id="s8xkUsam219M5rEEbGRo-8" value="Virtual Private Gateway" style="text;html=1;align=center;verticalAlign=middle;whiteSpace=wrap;rounded=0;" vertex="1" parent="1">
          <mxGeometry x="250" y="300" width="107.5" height="30" as="geometry" />
        </mxCell>
        <mxCell id="s8xkUsam219M5rEEbGRo-13" value="" style="sketch=0;points=[[0,0,0],[0.25,0,0],[0.5,0,0],[0.75,0,0],[1,0,0],[0,1,0],[0.25,1,0],[0.5,1,0],[0.75,1,0],[1,1,0],[0,0.25,0],[0,0.5,0],[0,0.75,0],[1,0.25,0],[1,0.5,0],[1,0.75,0]];outlineConnect=0;fontColor=#232F3E;fillColor=#8C4FFF;strokeColor=#ffffff;dashed=0;verticalLabelPosition=bottom;verticalAlign=top;align=center;html=1;fontSize=12;fontStyle=0;aspect=fixed;shape=mxgraph.aws4.resourceIcon;resIcon=mxgraph.aws4.vpc;" vertex="1" parent="1">
          <mxGeometry x="160" y="160" width="40" height="40" as="geometry" />
        </mxCell>
        <mxCell id="s8xkUsam219M5rEEbGRo-14" value="" style="sketch=0;points=[[0,0,0],[0.25,0,0],[0.5,0,0],[0.75,0,0],[1,0,0],[0,1,0],[0.25,1,0],[0.5,1,0],[0.75,1,0],[1,1,0],[0,0.25,0],[0,0.5,0],[0,0.75,0],[1,0.25,0],[1,0.5,0],[1,0.75,0]];outlineConnect=0;fontColor=#232F3E;fillColor=#8C4FFF;strokeColor=#ffffff;dashed=0;verticalLabelPosition=bottom;verticalAlign=top;align=center;html=1;fontSize=12;fontStyle=0;aspect=fixed;shape=mxgraph.aws4.resourceIcon;resIcon=mxgraph.aws4.vpc;" vertex="1" parent="1">
          <mxGeometry x="160" y="340" width="40" height="40" as="geometry" />
        </mxCell>
        <mxCell id="s8xkUsam219M5rEEbGRo-15" value="Private Subnet (Zone A)" style="text;html=1;align=center;verticalAlign=middle;whiteSpace=wrap;rounded=0;" vertex="1" parent="1">
          <mxGeometry x="130" y="205" width="100" height="30" as="geometry" />
        </mxCell>
        <mxCell id="s8xkUsam219M5rEEbGRo-17" value="Private Subnet (Zone B)" style="text;html=1;align=center;verticalAlign=middle;whiteSpace=wrap;rounded=0;" vertex="1" parent="1">
          <mxGeometry x="130" y="390" width="100" height="30" as="geometry" />
        </mxCell>
        <mxCell id="s8xkUsam219M5rEEbGRo-18" value="" style="sketch=0;points=[[0,0,0],[0.25,0,0],[0.5,0,0],[0.75,0,0],[1,0,0],[0,1,0],[0.25,1,0],[0.5,1,0],[0.75,1,0],[1,1,0],[0,0.25,0],[0,0.5,0],[0,0.75,0],[1,0.25,0],[1,0.5,0],[1,0.75,0]];outlineConnect=0;fontColor=#232F3E;fillColor=#ED7100;strokeColor=#ffffff;dashed=0;verticalLabelPosition=bottom;verticalAlign=top;align=center;html=1;fontSize=12;fontStyle=0;aspect=fixed;shape=mxgraph.aws4.resourceIcon;resIcon=mxgraph.aws4.ec2;" vertex="1" parent="1">
          <mxGeometry x="10" y="240" width="40" height="40" as="geometry" />
        </mxCell>
        <mxCell id="s8xkUsam219M5rEEbGRo-19" value="EC2" style="text;html=1;align=center;verticalAlign=middle;whiteSpace=wrap;rounded=0;" vertex="1" parent="1">
          <mxGeometry y="220" width="52.5" height="30" as="geometry" />
        </mxCell>
        <mxCell id="s8xkUsam219M5rEEbGRo-22" value="" style="outlineConnect=0;dashed=0;verticalLabelPosition=bottom;verticalAlign=top;align=center;html=1;shape=mxgraph.aws3.application_load_balancer;fillColor=#F58534;gradientColor=none;" vertex="1" parent="1">
          <mxGeometry x="5.88" y="330" width="40.75" height="40" as="geometry" />
        </mxCell>
        <mxCell id="s8xkUsam219M5rEEbGRo-23" value="Load Balancing" style="text;html=1;align=center;verticalAlign=middle;whiteSpace=wrap;rounded=0;" vertex="1" parent="1">
          <mxGeometry x="-14.999999999999996" y="370" width="90" height="30" as="geometry" />
        </mxCell>
        <mxCell id="s8xkUsam219M5rEEbGRo-27" value="VPC" style="text;whiteSpace=wrap;html=1;" vertex="1" parent="1">
          <mxGeometry x="-20" y="130" width="30" height="30" as="geometry" />
        </mxCell>
        <mxCell id="s8xkUsam219M5rEEbGRo-29" value="Region" style="text;whiteSpace=wrap;html=1;" vertex="1" parent="1">
          <mxGeometry x="-70" y="80" width="70" height="40" as="geometry" />
        </mxCell>
        <mxCell id="s8xkUsam219M5rEEbGRo-31" value="Cloud" style="text;whiteSpace=wrap;html=1;" vertex="1" parent="1">
          <mxGeometry x="-110" y="40" width="40" height="30" as="geometry" />
        </mxCell>
        <mxCell id="s8xkUsam219M5rEEbGRo-33" value="" style="outlineConnect=0;dashed=0;verticalLabelPosition=bottom;verticalAlign=top;align=center;html=1;shape=mxgraph.aws3.router;fillColor=#F58536;gradientColor=none;" vertex="1" parent="1">
          <mxGeometry x="760" y="240.75" width="59" height="61" as="geometry" />
        </mxCell>
        <mxCell id="s8xkUsam219M5rEEbGRo-34" value="R2&amp;nbsp;" style="text;whiteSpace=wrap;html=1;" vertex="1" parent="1">
          <mxGeometry x="779.5" y="310" width="20" height="30" as="geometry" />
        </mxCell>
        <mxCell id="s8xkUsam219M5rEEbGRo-35" value="" style="sketch=0;outlineConnect=0;fontColor=#232F3E;gradientColor=none;fillColor=#232F3D;strokeColor=none;dashed=0;verticalLabelPosition=bottom;verticalAlign=top;align=center;html=1;fontSize=12;fontStyle=0;aspect=fixed;pointerEvents=1;shape=mxgraph.aws4.traditional_server;" vertex="1" parent="1">
          <mxGeometry x="920" y="151" width="45" height="78" as="geometry" />
        </mxCell>
        <mxCell id="s8xkUsam219M5rEEbGRo-36" value="Server" style="text;whiteSpace=wrap;html=1;" vertex="1" parent="1">
          <mxGeometry x="950" y="121" width="50" height="30" as="geometry" />
        </mxCell>
        <mxCell id="s8xkUsam219M5rEEbGRo-39" value="" style="endArrow=classic;html=1;rounded=0;" edge="1" parent="1">
          <mxGeometry width="50" height="50" relative="1" as="geometry">
            <mxPoint x="50" y="257.5" as="sourcePoint" />
            <mxPoint x="120" y="212.5" as="targetPoint" />
          </mxGeometry>
        </mxCell>
        <mxCell id="s8xkUsam219M5rEEbGRo-40" value="" style="endArrow=classic;html=1;rounded=0;entryX=0;entryY=0.25;entryDx=0;entryDy=0;exitX=1;exitY=1;exitDx=0;exitDy=0;exitPerimeter=0;" edge="1" parent="1" source="s8xkUsam219M5rEEbGRo-18" target="s8xkUsam219M5rEEbGRo-25">
          <mxGeometry width="50" height="50" relative="1" as="geometry">
            <mxPoint x="50" y="300" as="sourcePoint" />
            <mxPoint x="130" y="260" as="targetPoint" />
          </mxGeometry>
        </mxCell>
        <mxCell id="s8xkUsam219M5rEEbGRo-45" value="" style="endArrow=none;html=1;rounded=0;" edge="1" parent="1">
          <mxGeometry width="50" height="50" relative="1" as="geometry">
            <mxPoint x="25.75" y="330" as="sourcePoint" />
            <mxPoint x="25.75" y="280" as="targetPoint" />
          </mxGeometry>
        </mxCell>
        <mxCell id="s8xkUsam219M5rEEbGRo-46" value="" style="endArrow=none;html=1;rounded=0;entryX=0;entryY=0.5;entryDx=0;entryDy=0;entryPerimeter=0;" edge="1" parent="1" target="s8xkUsam219M5rEEbGRo-4">
          <mxGeometry width="50" height="50" relative="1" as="geometry">
            <mxPoint x="340" y="270" as="sourcePoint" />
            <mxPoint x="390" y="220" as="targetPoint" />
          </mxGeometry>
        </mxCell>
        <mxCell id="s8xkUsam219M5rEEbGRo-47" value="" style="endArrow=none;html=1;rounded=0;entryX=0;entryY=0.5;entryDx=0;entryDy=0;entryPerimeter=0;" edge="1" parent="1" target="s8xkUsam219M5rEEbGRo-2">
          <mxGeometry width="50" height="50" relative="1" as="geometry">
            <mxPoint x="471.25" y="270" as="sourcePoint" />
            <mxPoint x="521.25" y="220" as="targetPoint" />
          </mxGeometry>
        </mxCell>
        <mxCell id="s8xkUsam219M5rEEbGRo-48" value="" style="endArrow=none;html=1;rounded=0;entryX=0;entryY=0.5;entryDx=0;entryDy=0;" edge="1" parent="1" target="CeybT1O4ImEEBQ-VAA7H-1">
          <mxGeometry width="50" height="50" relative="1" as="geometry">
            <mxPoint x="580" y="270" as="sourcePoint" />
            <mxPoint x="630" y="220" as="targetPoint" />
          </mxGeometry>
        </mxCell>
        <mxCell id="s8xkUsam219M5rEEbGRo-49" value="" style="endArrow=none;html=1;rounded=0;entryX=0;entryY=0.5;entryDx=0;entryDy=0;entryPerimeter=0;" edge="1" parent="1" target="s8xkUsam219M5rEEbGRo-33">
          <mxGeometry width="50" height="50" relative="1" as="geometry">
            <mxPoint x="700" y="270" as="sourcePoint" />
            <mxPoint x="750" y="270" as="targetPoint" />
          </mxGeometry>
        </mxCell>
        <mxCell id="s8xkUsam219M5rEEbGRo-50" value="" style="endArrow=none;html=1;rounded=0;entryX=0.5;entryY=1;entryDx=0;entryDy=0;" edge="1" parent="1" target="s8xkUsam219M5rEEbGRo-38">
          <mxGeometry width="50" height="50" relative="1" as="geometry">
            <mxPoint x="819" y="272.75" as="sourcePoint" />
            <mxPoint x="869" y="222.75" as="targetPoint" />
          </mxGeometry>
        </mxCell>
      </root>
    </mxGraphModel>
  </diagram>
</mxfile>
